<svg width="20" height="20" viewBox="0 0 20 20" fill="none" xmlns="http://www.w3.org/2000/svg">
  <path fill-rule="evenodd" clip-rule="evenodd"
    d="M7.00004 6C5.48126 6 4.25004 7.23122 4.25004 8.75C4.25004 10.2688 5.48126 11.5 7.00004 11.5C8.51883 11.5 9.75004 10.2688 9.75004 8.75C9.75004 7.23122 8.51883 6 7.00004 6ZM3.25004 8.75C3.25004 6.67893 4.92897 5 7.00004 5C9.07111 5 10.75 6.67893 10.75 8.75C10.75 10.8211 9.07111 12.5 7.00004 12.5C4.92897 12.5 3.25004 10.8211 3.25004 8.75Z"
    fill="white" />
  <path fill-rule="evenodd" clip-rule="evenodd"
    d="M12.0923 5L12.0938 5C13.0884 5 14.0422 5.39509 14.7454 6.09835C15.4487 6.80161 15.8438 7.75544 15.8438 8.75C15.8438 9.74456 15.4487 10.6984 14.7454 11.4017C14.0422 12.1049 13.0884 12.5 12.0938 12.5C11.8176 12.5 11.5938 12.2761 11.5938 12C11.5938 11.7239 11.8176 11.5 12.0938 11.5C12.8231 11.5 13.5226 11.2103 14.0383 10.6945C14.5541 10.1788 14.8438 9.47935 14.8438 8.75C14.8438 8.02066 14.5541 7.32118 14.0383 6.80546C13.5228 6.28991 12.8236 6.0002 12.0946 6C11.8408 6.00084 11.5883 6.0349 11.3434 6.10132C11.0769 6.1736 10.8023 6.01615 10.73 5.74963C10.6577 5.48312 10.8151 5.20847 11.0817 5.13619C11.4111 5.04683 11.7509 5.00104 12.0923 5Z"
    fill="white" />
  <path fill-rule="evenodd" clip-rule="evenodd"
    d="M7.00004 12.5C6.19767 12.5 5.40708 12.6929 4.69505 13.0628C3.98302 13.4327 3.37047 13.9685 2.90913 14.625C2.75036 14.8509 2.4385 14.9054 2.21256 14.7466C1.98663 14.5878 1.93218 14.276 2.09095 14.05C2.64455 13.2622 3.37961 12.6193 4.23405 12.1754C5.08848 11.7315 6.03719 11.5 7.00004 11.5C7.96289 11.5 8.9116 11.7315 9.76604 12.1754C10.6205 12.6193 11.3555 13.2622 11.9091 14.05C12.0679 14.276 12.0135 14.5878 11.7875 14.7466C11.5616 14.9054 11.2497 14.8509 11.091 14.625C10.6296 13.9685 10.0171 13.4327 9.30504 13.0628C8.59301 12.6929 7.80242 12.5 7.00004 12.5Z"
    fill="white" />
  <path fill-rule="evenodd" clip-rule="evenodd"
    d="M14.3991 13.0622C13.6871 12.6923 12.8961 12.4995 12.0938 12.5C11.8176 12.5 11.5938 12.2761 11.5938 12C11.5938 11.7239 11.8176 11.5 12.0938 11.5C13.0568 11.4994 14.0055 11.7309 14.8601 12.1748C15.7147 12.6187 16.4498 13.262 17.003 14.0502C17.1617 14.2763 17.1071 14.5881 16.8811 14.7467C16.655 14.9054 16.3432 14.8508 16.1845 14.6248C15.7236 13.968 15.1112 13.4321 14.3991 13.0622Z"
    fill="white" />
</svg>