<svg width="20" height="20" viewBox="0 0 20 20" fill="none" xmlns="http://www.w3.org/2000/svg">
  <path fill-rule="evenodd" clip-rule="evenodd"
    d="M15.5 4C15.2239 4 15 4.22386 15 4.5V15.5C15 15.7761 15.2239 16 15.5 16C15.7761 16 16 15.7761 16 15.5V4.5C16 4.22386 15.7761 4 15.5 4ZM8.64645 5.14645C8.45118 5.34171 8.45118 5.65829 8.64645 5.85355L12.2929 9.5H4C3.72386 9.5 3.5 9.72386 3.5 10C3.5 10.2761 3.72386 10.5 4 10.5H12.2929L8.64645 14.1464C8.45118 14.3417 8.45118 14.6583 8.64645 14.8536C8.84171 15.0488 9.15829 15.0488 9.35355 14.8536L13.8536 10.3536C14.0488 10.1583 14.0488 9.84171 13.8536 9.64645L9.35355 5.14645C9.15829 4.95118 8.84171 4.95118 8.64645 5.14645Z"
    fill="#A0ADBA" />
</svg>