<svg width="20" height="20" viewBox="0 0 20 20" fill="none" xmlns="http://www.w3.org/2000/svg">
  <path fill-rule="evenodd" clip-rule="evenodd"
    d="M9.75 5C7.12665 5 5 7.12665 5 9.75C5 12.3734 7.12665 14.5 9.75 14.5C12.3734 14.5 14.5 12.3734 14.5 9.75C14.5 7.12665 12.3734 5 9.75 5ZM4 9.75C4 6.57436 6.57436 4 9.75 4C12.9256 4 15.5 6.57436 15.5 9.75C15.5 12.9256 12.9256 15.5 9.75 15.5C6.57436 15.5 4 12.9256 4 9.75Z"
    fill="#A0ADBA" />
  <path fill-rule="evenodd" clip-rule="evenodd"
    d="M13.1089 13.1089C13.3042 12.9137 13.6208 12.9137 13.8161 13.1089L16.8536 16.1464C17.0488 16.3417 17.0488 16.6583 16.8536 16.8536C16.6583 17.0488 16.3417 17.0488 16.1464 16.8536L13.1089 13.8161C12.9137 13.6208 12.9137 13.3042 13.1089 13.1089Z"
    fill="#A0ADBA" />
</svg>